<mxfile host="app.diagrams.net" modified="2021-11-15T01:03:07.561Z" agent="5.0 (X11; Linux x86_64) AppleWebKit/537.36 (KHTML, like Gecko) Chrome/95.0.4638.69 Safari/537.36" etag="9O1LZgkwpX-lZk5_We4V" version="15.7.0" type="github">
  <diagram id="SWPLuQD_uAmGsCWUyiwx" name="Page-1">
    <mxGraphModel dx="1881" dy="611" grid="1" gridSize="10" guides="1" tooltips="1" connect="1" arrows="1" fold="1" page="1" pageScale="1" pageWidth="827" pageHeight="1169" math="0" shadow="0">
      <root>
        <mxCell id="0" />
        <mxCell id="1" parent="0" />
        <mxCell id="3FM2HRUyS4M1R4F6BxjH-5" style="edgeStyle=orthogonalEdgeStyle;rounded=0;orthogonalLoop=1;jettySize=auto;html=1;fontColor=default;startArrow=none;strokeColor=default;labelBackgroundColor=default;endArrow=classic;endFill=1;" parent="1" source="zDQDlWeWseVo2ebbtp9s-18" target="zDQDlWeWseVo2ebbtp9s-20" edge="1">
          <mxGeometry relative="1" as="geometry">
            <mxPoint x="420" y="159.31" as="sourcePoint" />
            <mxPoint x="480" y="159.31" as="targetPoint" />
          </mxGeometry>
        </mxCell>
        <mxCell id="3FM2HRUyS4M1R4F6BxjH-7" value="" style="edgeStyle=orthogonalEdgeStyle;rounded=0;orthogonalLoop=1;jettySize=auto;html=1;entryX=0;entryY=0.5;entryDx=0;entryDy=0;fontColor=default;endArrow=none;" parent="1" edge="1">
          <mxGeometry relative="1" as="geometry">
            <mxPoint x="60" y="239.5" as="sourcePoint" />
            <mxPoint x="110" y="239.5" as="targetPoint" />
          </mxGeometry>
        </mxCell>
        <mxCell id="3FM2HRUyS4M1R4F6BxjH-17" style="edgeStyle=orthogonalEdgeStyle;rounded=0;orthogonalLoop=1;jettySize=auto;html=1;labelBackgroundColor=default;fontColor=default;strokeColor=default;entryX=0.5;entryY=0;entryDx=0;entryDy=0;" parent="1" source="3FM2HRUyS4M1R4F6BxjH-10" target="3FM2HRUyS4M1R4F6BxjH-12" edge="1">
          <mxGeometry relative="1" as="geometry">
            <mxPoint x="171.25" y="220" as="targetPoint" />
          </mxGeometry>
        </mxCell>
        <mxCell id="3FM2HRUyS4M1R4F6BxjH-10" value="Domain Definition&lt;br&gt;(websites - newspapers - and time span)" style="rounded=0;whiteSpace=wrap;html=1;fontColor=default;strokeColor=default;fillColor=default;" parent="1" vertex="1">
          <mxGeometry x="90" y="100" width="162.5" height="60" as="geometry" />
        </mxCell>
        <mxCell id="3FM2HRUyS4M1R4F6BxjH-12" value="&lt;span&gt;HTTP API request to obtain news articles URLs&lt;/span&gt;" style="rounded=0;whiteSpace=wrap;html=1;fontColor=default;strokeColor=default;fillColor=default;" parent="1" vertex="1">
          <mxGeometry x="111.25" y="215" width="120" height="50" as="geometry" />
        </mxCell>
        <mxCell id="3FM2HRUyS4M1R4F6BxjH-13" value="Arquivo.pt" style="shape=datastore;whiteSpace=wrap;html=1;fontColor=default;strokeColor=default;fillColor=default;" parent="1" vertex="1">
          <mxGeometry x="-20" y="190" width="80" height="100" as="geometry" />
        </mxCell>
        <mxCell id="3FM2HRUyS4M1R4F6BxjH-15" style="edgeStyle=orthogonalEdgeStyle;rounded=0;orthogonalLoop=1;jettySize=auto;html=1;labelBackgroundColor=default;fontColor=default;strokeColor=default;endArrow=classic;endFill=1;" parent="1" source="zDQDlWeWseVo2ebbtp9s-20" target="3FM2HRUyS4M1R4F6BxjH-16" edge="1">
          <mxGeometry relative="1" as="geometry">
            <mxPoint x="620" y="240" as="targetPoint" />
            <Array as="points" />
            <mxPoint x="550" y="360" as="sourcePoint" />
          </mxGeometry>
        </mxCell>
        <mxCell id="3FM2HRUyS4M1R4F6BxjH-19" style="edgeStyle=orthogonalEdgeStyle;rounded=0;orthogonalLoop=1;jettySize=auto;html=1;labelBackgroundColor=default;fontColor=default;strokeColor=default;endArrow=classic;endFill=1;" parent="1" source="3FM2HRUyS4M1R4F6BxjH-16" target="zDQDlWeWseVo2ebbtp9s-21" edge="1">
          <mxGeometry relative="1" as="geometry">
            <mxPoint x="730" y="100" as="targetPoint" />
          </mxGeometry>
        </mxCell>
        <mxCell id="3FM2HRUyS4M1R4F6BxjH-16" value="&lt;span&gt;Scrapping each article&#39;s HTML content with Beautiful Soup to obtain article information (e.g. author, title, content, published date, etc)&lt;/span&gt;" style="rounded=0;whiteSpace=wrap;html=1;fontColor=default;strokeColor=default;fillColor=default;" parent="1" vertex="1">
          <mxGeometry x="460" y="354.28" width="120" height="114.81" as="geometry" />
        </mxCell>
        <mxCell id="3FM2HRUyS4M1R4F6BxjH-21" style="edgeStyle=orthogonalEdgeStyle;rounded=0;orthogonalLoop=1;jettySize=auto;html=1;labelBackgroundColor=default;fontColor=default;strokeColor=default;endArrow=classic;endFill=1;" parent="1" source="3FM2HRUyS4M1R4F6BxjH-18" target="3FM2HRUyS4M1R4F6BxjH-22" edge="1">
          <mxGeometry relative="1" as="geometry">
            <mxPoint x="1170" y="239.5" as="targetPoint" />
          </mxGeometry>
        </mxCell>
        <mxCell id="3FM2HRUyS4M1R4F6BxjH-18" value="News Database with article meta parameters in JSON" style="shape=datastore;whiteSpace=wrap;html=1;fontColor=default;strokeColor=default;fillColor=default;" parent="1" vertex="1">
          <mxGeometry x="-20" y="349.43" width="80" height="124.5" as="geometry" />
        </mxCell>
        <mxCell id="3FM2HRUyS4M1R4F6BxjH-23" style="edgeStyle=orthogonalEdgeStyle;rounded=0;orthogonalLoop=1;jettySize=auto;html=1;labelBackgroundColor=default;fontColor=default;strokeColor=default;" parent="1" source="3FM2HRUyS4M1R4F6BxjH-22" target="3FM2HRUyS4M1R4F6BxjH-25" edge="1">
          <mxGeometry relative="1" as="geometry">
            <mxPoint x="1360" y="239.5" as="targetPoint" />
          </mxGeometry>
        </mxCell>
        <mxCell id="3FM2HRUyS4M1R4F6BxjH-22" value="&lt;span&gt;Convert JSON to CSV&lt;/span&gt;" style="rounded=0;whiteSpace=wrap;html=1;fontColor=default;strokeColor=default;fillColor=default;" parent="1" vertex="1">
          <mxGeometry x="-40" y="562" width="120" height="45.62" as="geometry" />
        </mxCell>
        <mxCell id="3FM2HRUyS4M1R4F6BxjH-29" style="edgeStyle=orthogonalEdgeStyle;rounded=0;orthogonalLoop=1;jettySize=auto;html=1;entryX=0;entryY=0.5;entryDx=0;entryDy=0;labelBackgroundColor=default;fontColor=default;strokeColor=default;" parent="1" source="3FM2HRUyS4M1R4F6BxjH-25" target="3FM2HRUyS4M1R4F6BxjH-28" edge="1">
          <mxGeometry relative="1" as="geometry">
            <Array as="points" />
          </mxGeometry>
        </mxCell>
        <mxCell id="3FM2HRUyS4M1R4F6BxjH-25" value="Final dataset in CSV" style="shape=datastore;whiteSpace=wrap;html=1;fontColor=default;strokeColor=default;fillColor=default;" parent="1" vertex="1">
          <mxGeometry x="151.25" y="530" width="80" height="110" as="geometry" />
        </mxCell>
        <mxCell id="3FM2HRUyS4M1R4F6BxjH-28" value="&lt;span&gt;Data Analysis&lt;/span&gt;" style="rounded=0;whiteSpace=wrap;html=1;fontColor=default;strokeColor=default;fillColor=default;" parent="1" vertex="1">
          <mxGeometry x="320" y="571.25" width="120" height="27.5" as="geometry" />
        </mxCell>
        <mxCell id="XwUieqV6MBhT14_o7JyP-1" value="Website" style="swimlane;fontStyle=0;childLayout=stackLayout;horizontal=1;startSize=30;horizontalStack=0;resizeParent=1;resizeParentMax=0;resizeLast=0;collapsible=1;marginBottom=0;" parent="1" vertex="1">
          <mxGeometry x="810" y="180" width="140" height="60" as="geometry" />
        </mxCell>
        <mxCell id="XwUieqV6MBhT14_o7JyP-36" value="url" style="text;strokeColor=none;fillColor=none;align=left;verticalAlign=middle;spacingLeft=4;spacingRight=4;overflow=hidden;points=[[0,0.5],[1,0.5]];portConstraint=eastwest;rotatable=0;" parent="XwUieqV6MBhT14_o7JyP-1" vertex="1">
          <mxGeometry y="30" width="140" height="30" as="geometry" />
        </mxCell>
        <mxCell id="XwUieqV6MBhT14_o7JyP-10" value="News" style="swimlane;fontStyle=0;childLayout=stackLayout;horizontal=1;startSize=30;horizontalStack=0;resizeParent=1;resizeParentMax=0;resizeLast=0;collapsible=1;marginBottom=0;" parent="1" vertex="1">
          <mxGeometry x="1081.25" y="180" width="140" height="60" as="geometry" />
        </mxCell>
        <mxCell id="XwUieqV6MBhT14_o7JyP-37" value="url" style="text;strokeColor=none;fillColor=none;align=left;verticalAlign=middle;spacingLeft=4;spacingRight=4;overflow=hidden;points=[[0,0.5],[1,0.5]];portConstraint=eastwest;rotatable=0;" parent="XwUieqV6MBhT14_o7JyP-10" vertex="1">
          <mxGeometry y="30" width="140" height="30" as="geometry" />
        </mxCell>
        <mxCell id="XwUieqV6MBhT14_o7JyP-14" value="Version" style="swimlane;fontStyle=0;childLayout=stackLayout;horizontal=1;startSize=30;horizontalStack=0;resizeParent=1;resizeParentMax=0;resizeLast=0;collapsible=1;marginBottom=0;" parent="1" vertex="1">
          <mxGeometry x="1081.25" y="300" width="140" height="240" as="geometry" />
        </mxCell>
        <mxCell id="XwUieqV6MBhT14_o7JyP-15" value="timestamp" style="text;strokeColor=none;fillColor=none;align=left;verticalAlign=middle;spacingLeft=4;spacingRight=4;overflow=hidden;points=[[0,0.5],[1,0.5]];portConstraint=eastwest;rotatable=0;" parent="XwUieqV6MBhT14_o7JyP-14" vertex="1">
          <mxGeometry y="30" width="140" height="30" as="geometry" />
        </mxCell>
        <mxCell id="XwUieqV6MBhT14_o7JyP-39" value="title" style="text;strokeColor=none;fillColor=none;align=left;verticalAlign=middle;spacingLeft=4;spacingRight=4;overflow=hidden;points=[[0,0.5],[1,0.5]];portConstraint=eastwest;rotatable=0;" parent="XwUieqV6MBhT14_o7JyP-14" vertex="1">
          <mxGeometry y="60" width="140" height="30" as="geometry" />
        </mxCell>
        <mxCell id="XwUieqV6MBhT14_o7JyP-40" value="summary" style="text;strokeColor=none;fillColor=none;align=left;verticalAlign=middle;spacingLeft=4;spacingRight=4;overflow=hidden;points=[[0,0.5],[1,0.5]];portConstraint=eastwest;rotatable=0;" parent="XwUieqV6MBhT14_o7JyP-14" vertex="1">
          <mxGeometry y="90" width="140" height="30" as="geometry" />
        </mxCell>
        <mxCell id="XwUieqV6MBhT14_o7JyP-42" value="text" style="text;strokeColor=none;fillColor=none;align=left;verticalAlign=middle;spacingLeft=4;spacingRight=4;overflow=hidden;points=[[0,0.5],[1,0.5]];portConstraint=eastwest;rotatable=0;" parent="XwUieqV6MBhT14_o7JyP-14" vertex="1">
          <mxGeometry y="120" width="140" height="30" as="geometry" />
        </mxCell>
        <mxCell id="XwUieqV6MBhT14_o7JyP-41" value="authors" style="text;strokeColor=none;fillColor=none;align=left;verticalAlign=middle;spacingLeft=4;spacingRight=4;overflow=hidden;points=[[0,0.5],[1,0.5]];portConstraint=eastwest;rotatable=0;" parent="XwUieqV6MBhT14_o7JyP-14" vertex="1">
          <mxGeometry y="150" width="140" height="30" as="geometry" />
        </mxCell>
        <mxCell id="XwUieqV6MBhT14_o7JyP-43" value="image" style="text;strokeColor=none;fillColor=none;align=left;verticalAlign=middle;spacingLeft=4;spacingRight=4;overflow=hidden;points=[[0,0.5],[1,0.5]];portConstraint=eastwest;rotatable=0;" parent="XwUieqV6MBhT14_o7JyP-14" vertex="1">
          <mxGeometry y="180" width="140" height="30" as="geometry" />
        </mxCell>
        <mxCell id="XwUieqV6MBhT14_o7JyP-44" value="published_date" style="text;strokeColor=none;fillColor=none;align=left;verticalAlign=middle;spacingLeft=4;spacingRight=4;overflow=hidden;points=[[0,0.5],[1,0.5]];portConstraint=eastwest;rotatable=0;" parent="XwUieqV6MBhT14_o7JyP-14" vertex="1">
          <mxGeometry y="210" width="140" height="30" as="geometry" />
        </mxCell>
        <mxCell id="XwUieqV6MBhT14_o7JyP-29" value="" style="endArrow=none;html=1;rounded=0;" parent="1" source="XwUieqV6MBhT14_o7JyP-14" target="XwUieqV6MBhT14_o7JyP-10" edge="1">
          <mxGeometry width="50" height="50" relative="1" as="geometry">
            <mxPoint x="1360" y="210" as="sourcePoint" />
            <mxPoint x="1220" y="210" as="targetPoint" />
          </mxGeometry>
        </mxCell>
        <mxCell id="XwUieqV6MBhT14_o7JyP-35" value="*" style="edgeLabel;html=1;align=center;verticalAlign=middle;resizable=0;points=[];" parent="XwUieqV6MBhT14_o7JyP-29" vertex="1" connectable="0">
          <mxGeometry x="-0.4958" y="1" relative="1" as="geometry">
            <mxPoint x="10" y="5" as="offset" />
          </mxGeometry>
        </mxCell>
        <mxCell id="XwUieqV6MBhT14_o7JyP-33" value="" style="endArrow=none;html=1;rounded=0;exitX=1;exitY=0.011;exitDx=0;exitDy=0;entryX=0.001;entryY=0.015;entryDx=0;entryDy=0;entryPerimeter=0;exitPerimeter=0;" parent="1" source="XwUieqV6MBhT14_o7JyP-36" target="XwUieqV6MBhT14_o7JyP-37" edge="1">
          <mxGeometry width="50" height="50" relative="1" as="geometry">
            <mxPoint x="1004" y="300" as="sourcePoint" />
            <mxPoint x="1094" y="300" as="targetPoint" />
          </mxGeometry>
        </mxCell>
        <mxCell id="XwUieqV6MBhT14_o7JyP-34" value="*" style="edgeLabel;html=1;align=center;verticalAlign=middle;resizable=0;points=[];" parent="XwUieqV6MBhT14_o7JyP-33" vertex="1" connectable="0">
          <mxGeometry x="0.2" relative="1" as="geometry">
            <mxPoint x="41" y="-10" as="offset" />
          </mxGeometry>
        </mxCell>
        <mxCell id="zDQDlWeWseVo2ebbtp9s-18" value="Data cleaning" style="rounded=0;whiteSpace=wrap;html=1;fontColor=default;strokeColor=default;fillColor=default;" parent="1" vertex="1">
          <mxGeometry x="280" y="225" width="120" height="30" as="geometry" />
        </mxCell>
        <mxCell id="zDQDlWeWseVo2ebbtp9s-19" value="" style="edgeStyle=orthogonalEdgeStyle;rounded=0;orthogonalLoop=1;jettySize=auto;html=1;fontColor=default;endArrow=classic;endFill=1;" parent="1" source="3FM2HRUyS4M1R4F6BxjH-12" target="zDQDlWeWseVo2ebbtp9s-18" edge="1">
          <mxGeometry relative="1" as="geometry">
            <mxPoint x="70" y="249.5" as="sourcePoint" />
            <mxPoint x="120" y="249.5" as="targetPoint" />
          </mxGeometry>
        </mxCell>
        <mxCell id="zDQDlWeWseVo2ebbtp9s-20" value="HTTP API request to obtain the HTML of each article" style="rounded=0;whiteSpace=wrap;html=1;fontColor=default;strokeColor=default;fillColor=default;" parent="1" vertex="1">
          <mxGeometry x="460" y="212.5" width="120" height="53.75" as="geometry" />
        </mxCell>
        <mxCell id="zDQDlWeWseVo2ebbtp9s-21" value="&lt;span&gt;Data cleaning and refinement&lt;/span&gt;" style="rounded=0;whiteSpace=wrap;html=1;fontColor=default;strokeColor=default;fillColor=default;" parent="1" vertex="1">
          <mxGeometry x="294" y="388.55999999999995" width="120" height="46.25" as="geometry" />
        </mxCell>
        <mxCell id="zDQDlWeWseVo2ebbtp9s-22" style="edgeStyle=orthogonalEdgeStyle;rounded=0;orthogonalLoop=1;jettySize=auto;html=1;labelBackgroundColor=default;fontColor=default;strokeColor=default;endArrow=classic;endFill=1;" parent="1" source="zDQDlWeWseVo2ebbtp9s-21" target="3FM2HRUyS4M1R4F6BxjH-18" edge="1">
          <mxGeometry relative="1" as="geometry">
            <mxPoint x="750" y="250" as="sourcePoint" />
            <mxPoint x="820" y="250" as="targetPoint" />
          </mxGeometry>
        </mxCell>
        <mxCell id="7BgZhVBEtn2NX_L8S_cX-1" value="&lt;span&gt;Filter obtained URLs to only contain the ones that correspond to news articles&lt;/span&gt;" style="shape=note;whiteSpace=wrap;html=1;backgroundOutline=1;darkOpacity=0.05;size=7;" parent="1" vertex="1">
          <mxGeometry x="280" y="135" width="110" height="80" as="geometry" />
        </mxCell>
        <mxCell id="7BgZhVBEtn2NX_L8S_cX-2" value="Clean the data that was scrapped from the HTML, (e.g. text embedded ads)" style="shape=note;whiteSpace=wrap;html=1;backgroundOutline=1;darkOpacity=0.05;size=7;" parent="1" vertex="1">
          <mxGeometry x="294" y="305" width="110" height="73.25" as="geometry" />
        </mxCell>
        <mxCell id="wCQifrebErcAsua52_zG-1" value="&lt;span&gt;Extract entities from the content of each of the articles using spaCy&lt;/span&gt;" style="rounded=0;whiteSpace=wrap;html=1;fontColor=default;strokeColor=default;fillColor=default;" vertex="1" parent="1">
          <mxGeometry x="111.25" y="378.25" width="120" height="65.72" as="geometry" />
        </mxCell>
        <mxCell id="wCQifrebErcAsua52_zG-2" value="Entity" style="swimlane;fontStyle=0;childLayout=stackLayout;horizontal=1;startSize=30;horizontalStack=0;resizeParent=1;resizeParentMax=0;resizeLast=0;collapsible=1;marginBottom=0;" vertex="1" parent="1">
          <mxGeometry x="810" y="300" width="140" height="120" as="geometry" />
        </mxCell>
        <mxCell id="wCQifrebErcAsua52_zG-3" value="slug" style="text;strokeColor=none;fillColor=none;align=left;verticalAlign=middle;spacingLeft=4;spacingRight=4;overflow=hidden;points=[[0,0.5],[1,0.5]];portConstraint=eastwest;rotatable=0;" vertex="1" parent="wCQifrebErcAsua52_zG-2">
          <mxGeometry y="30" width="140" height="30" as="geometry" />
        </mxCell>
        <mxCell id="wCQifrebErcAsua52_zG-4" value="title" style="text;strokeColor=none;fillColor=none;align=left;verticalAlign=middle;spacingLeft=4;spacingRight=4;overflow=hidden;points=[[0,0.5],[1,0.5]];portConstraint=eastwest;rotatable=0;" vertex="1" parent="wCQifrebErcAsua52_zG-2">
          <mxGeometry y="60" width="140" height="30" as="geometry" />
        </mxCell>
        <mxCell id="wCQifrebErcAsua52_zG-5" value="label" style="text;strokeColor=none;fillColor=none;align=left;verticalAlign=middle;spacingLeft=4;spacingRight=4;overflow=hidden;points=[[0,0.5],[1,0.5]];portConstraint=eastwest;rotatable=0;" vertex="1" parent="wCQifrebErcAsua52_zG-2">
          <mxGeometry y="90" width="140" height="30" as="geometry" />
        </mxCell>
        <mxCell id="wCQifrebErcAsua52_zG-7" style="edgeStyle=orthogonalEdgeStyle;rounded=0;orthogonalLoop=1;jettySize=auto;html=1;endArrow=none;endFill=0;" edge="1" parent="1" source="XwUieqV6MBhT14_o7JyP-15">
          <mxGeometry relative="1" as="geometry">
            <mxPoint x="950" y="345" as="targetPoint" />
            <Array as="points">
              <mxPoint x="950" y="330" />
            </Array>
          </mxGeometry>
        </mxCell>
        <mxCell id="wCQifrebErcAsua52_zG-9" value="*" style="text;html=1;align=center;verticalAlign=middle;resizable=0;points=[];autosize=1;strokeColor=none;fillColor=none;" vertex="1" parent="1">
          <mxGeometry x="1061.25" y="309.43" width="20" height="20" as="geometry" />
        </mxCell>
        <mxCell id="wCQifrebErcAsua52_zG-11" value="*" style="text;html=1;align=center;verticalAlign=middle;resizable=0;points=[];autosize=1;strokeColor=none;fillColor=none;" vertex="1" parent="1">
          <mxGeometry x="950" y="309.43" width="20" height="20" as="geometry" />
        </mxCell>
      </root>
    </mxGraphModel>
  </diagram>
</mxfile>
